{"title":"Shortland.Street.S22.E5417.720p.HDTV.mp4","uid":9560560,"size":504303454,"categoryP":"video","categoryS":"hd___tv_shows","magnet":"?xt=urn:btih:0cbea4a20cd03a2545bb77e9e526955da4ce4c5e&amp;dn=Shortland.Street.S22.E5417.720p.HDTV.mp4&amp;tr=udp%3A%2F%2Ftracker.openbittorrent.com%3A80&amp;tr=udp%3A%2F%2Fopen.demonii.com%3A1337&amp;tr=udp%3A%2F%2Ftracker.coppersurfer.tk%3A6969&amp;tr=udp%3A%2F%2Fexodus.desync.com%3A6969","seeders":1,"leechers":0,"uploader":"haydenm96","files":1,"time":1391416363,"description":"General\nComplete name                            : E:Shortland.Street.S22.E5417.720p.HDTV.mp4\nFormat                                   : MPEG-4\nFormat profile                           : Base Media\nCodec ID                                 : isom\nFile size                                : 481 MiB\nDuration                                 : 23mn 5s\nOverall bit rate mode                    : Variable\nOverall bit rate                         : 2 911 Kbps\nEncoded date                             : UTC 2014-02-03 07:24:02\nTagged date                              : UTC 2014-02-03 07:24:02\n\nVideo\nID                                       : 1\nFormat                                   : AVC\nFormat/Info                              : Advanced Video Codec\nFormat profile                           : &lt;a class=&quot;__cf_email__&quot; href=&quot;/cdn-cgi/l/email-protection&quot; data-cfemail=&quot;fcb4959b94bcb0c8d2cc&quot;&gt;[email&amp;#160;protected]&lt;/a&gt;&lt;script cf-hash='f9e31' type=&quot;text/javascript&quot;&gt;\n/* &lt;![CDATA[ */!function(){try{var t=&quot;currentScript&quot;in document?document.currentScript:function(){for(var t=document.getElementsByTagName(&quot;script&quot;),e=t.length;e--;)if(t[e].getAttribute(&quot;cf-hash&quot;))return t[e]}();if(t&amp;&amp;t.previousSibling){var e,r,n,i,c=t.previousSibling,a=c.getAttribute(&quot;data-cfemail&quot;);if(a){for(e=&quot;&quot;,r=parseInt(a.substr(0,2),16),n=2;a.length-n;n+=2)i=parseInt(a.substr(n,2),16)^r,e+=String.fromCharCode(i);e=document.createTextNode(e),c.parentNode.replaceChild(e,c)}}}catch(u){}}();/* ]]&gt; */&lt;/script&gt;\nFormat settings, CABAC                   : Yes\nFormat settings, ReFrames                : 3 frames\nCodec ID                                 : avc1\nCodec ID/Info                            : Advanced Video Coding\nDuration                                 : 23mn 5s\nBit rate mode                            : Variable\nBit rate                                 : 2 587 Kbps\nMaximum bit rate                         : 25.0 Mbps\nWidth                                    : 1 280 pixels\nHeight                                   : 720 pixels\nDisplay aspect ratio                     : 16:9\nFrame rate mode                          : Constant\nFrame rate                               : 25.000 fps\nColor space                              : YUV\nChroma subsampling                       : 4:2:0\nBit depth                                : 8 bits\nScan type                                : Progressive\nBits/(Pixel*Frame)                       : 0.112\nStream size                              : 427 MiB (89%)\nTitle                                    : ShortlandStreet 3 02 2014\nWriting library                          : x264 core 135 r2345 f0c1c53\nEncoded date                             : UTC 2014-02-03 07:24:02\nTagged date                              : UTC 2014-02-03 07:24:09\n\nAudio\nID                                       : 2\nFormat                                   : AAC\nFormat/Info                              : Advanced Audio Codec\nFormat profile                           : LC\nCodec ID                                 : 40\nDuration                                 : 23mn 5s\nBit rate mode                            : Variable\nBit rate                                 : 320 Kbps\nMaximum bit rate                         : 331 Kbps\nChannel count                            : 2 channels\nOriginal Channel count                   : 6 channels\nChannel positions                        : Front: L C R, Side: L R, LFE\nSampling rate                            : 48.0 KHz\nCompression mode                         : Lossy\nStream size                              : 52.9 MiB (11%)\nLanguage                                 : English\nEncoded date                             : UTC 2014-02-03 07:24:08\nTagged date                              : UTC 2014-02-03 07:24:09\n\n","torrent":{"xt":"urn:btih:0cbea4a20cd03a2545bb77e9e526955da4ce4c5e","amp;dn":"Shortland.Street.S22.E5417.720p.HDTV.mp4","amp;tr":["udp%3A%2F%2Ftracker.openbittorrent.com%3A80","udp%3A%2F%2Fopen.demonii.com%3A1337","udp%3A%2F%2Ftracker.coppersurfer.tk%3A6969","udp%3A%2F%2Fexodus.desync.com%3A6969"],"infoHash":"0cbea4a20cd03a2545bb77e9e526955da4ce4c5e","infoHashBuffer":{"type":"Buffer","data":[12,190,164,162,12,208,58,37,69,187,119,233,229,38,149,93,164,206,76,94]},"announce":[],"urlList":[]}}